<svg xmlns="http://www.w3.org/2000/svg" viewBox="0 0 700 571" width="700" height="571" role="img" aria-label="그림 위쪽에 「한 사람의 머릿속에서 인쇄까지 — 30년」이라는 표제가 있고 그 아래에 계단은 해법을 알게 된 사람의 누계, 파선은 출처가 무렵으로 적은 것, 화살표는 인쇄되어 누구나라는 부호표가 있다. 가로축은 1490년부터 1550년까지의 해이고, 세로축은 해법을 아는 사람의 수로 0부터 4까지 눈금이 있으며 그 위에 끊김 표시를 두고 누구나라는 칸이 따로 있다. 세로축 맨 위에 아는 사람이라고 적혀 있다. 1494년 0의 높이에 점이 있고 파치올리 아마 불가능이라고 적혀 있다. 선은 0의 높이로 오른쪽으로 가다가 1515년에 파선으로 1로 올라가고 옆에 1515 무렵 델 페로가 풀고 감추다라고 적혀 있다. 이어 1526년에 2로 올라가며 임종 무렵 피오르에게, 1535년에 3으로 올라가며 타르탈리아가 스스로 이르다, 1539년에 4로 올라가며 시 스물다섯 줄과 맹세라고 적혀 있다. 4의 높이에 1540과 1543 자리에 작은 동그라미 둘이 있고 각각 1번, 2번이 붙어 있다. 그 번호의 풀이는 그림 오른쪽 아래, 0과 1 눈금 사이에 적혀 있다 — 1번은 1540 페라리가 사차를 풀다, 낼 수 없음, 2번은 1543 볼로냐에서 델 페로 유고 확인. 1545년에 선이 4에서 누구나 칸까지 화살표로 치솟고 1545 아르스 마그나 인쇄라고 적혀 있다. 가로축 아래에 1515에서 1545까지를 묶는 괄호가 있어 30년이라고 적혀 있고, 그 바로 아래 같은 폭의 옅은 띠에 그 30년 내내 인쇄기는 있었다고 적혀 있다. 아래에 단서가 여섯 줄 있다. 첫째, 세로축은 노트 4절 표의 사람 수이고 해법을 알게 된 사람의 누계라서 1526년에 죽은 델 페로도 센다. 둘째, 계단은 표가 수를 적은 해에만 올렸고 그사이 따로 알게 된 사람이 있었는지는 모른다. 셋째, 1515년 계단만 파선인 것은 출처가 무렵으로 적기 때문이다. 넷째, 페라리의 사차 풀이는 삼차 위에 섰으니 그도 알았지만 표가 수를 적지 않아 계단을 올리지 않았을 뿐이고, 1540년부터의 4는 적게 잡은 값이다. 다섯째, 맨 위 누구나는 수가 아니어서 눈금 간격과 맞지 않는다. 여섯째, 해는 노트의 출처 11번부터 14번과 21번, MacTutor와 Encyclopedia.com을 따랐다.">
<title>한 사람의 머릿속에서 인쇄까지 30년</title>
<defs><marker id="ah" viewBox="0 0 10 10" refX="9" refY="5" markerWidth="7" markerHeight="7" orient="auto"><path d="M0,0 L10,5 L0,10 z" fill="#221E18"/></marker></defs>
<style>
    text{font-family:EB Garamond, Georgia, 'Noto Serif KR', 'Noto Serif CJK KR', NanumMyeongjo, Batang, AppleMyungjo, serif;fill:#221E18;}
    .h1{font-size:19px;} .h2{font-size:12.5px;fill:#5B5245;}
    .ev{font-size:11px;} .sm{font-size:10.5px;fill:#5B5245;} .yr{font-size:11px;fill:#5B5245;}
    .tiny{font-size:9.5px;fill:#5B5245;}
    .bg{fill:#FFFDF7;}
    .grid{stroke:#D8CDBB;stroke-width:0.8;}
    .axis{stroke:#8A7F6E;stroke-width:1;fill:none;}
    .step{stroke:#221E18;stroke-width:2;fill:none;}
    .unk{stroke:#9C5A2C;stroke-width:2;fill:none;stroke-dasharray:4 4;}
    .pt{fill:#221E18;}
    .mk{fill:#FFFDF7;stroke:#221E18;stroke-width:1.3;}
    .brk{stroke:#9C5A2C;stroke-width:1.2;fill:none;}
    .press{fill:#F4EADC;stroke:#8A7F6E;stroke-width:0.8;}
    .warn{font-size:10.5px;fill:#5B5245;}
  </style>
<rect class="bg" x="0" y="0" width="700" height="571"/>
<text class="h1" x="56" y="44">한 사람의 머릿속에서 인쇄까지 — 30년</text>
<text class="h2" x="56" y="66">계단 = 해법을 알게 된 사람의 누계 · 파선 = 출처가 「무렵」 · 화살표 = 인쇄되어 누구나</text>
  <line class="grid" x1="120" y1="336" x2="640" y2="336"/>
  <text class="yr" x="110.0" y="340" text-anchor="end">0</text>
  <line class="grid" x1="120" y1="296" x2="640" y2="296"/>
  <text class="yr" x="110.0" y="300" text-anchor="end">1</text>
  <line class="grid" x1="120" y1="256" x2="640" y2="256"/>
  <text class="yr" x="110.0" y="260" text-anchor="end">2</text>
  <line class="grid" x1="120" y1="216" x2="640" y2="216"/>
  <text class="yr" x="110.0" y="220" text-anchor="end">3</text>
  <line class="grid" x1="120" y1="176" x2="640" y2="176"/>
  <text class="yr" x="110.0" y="180" text-anchor="end">4</text>
  <text class="yr" x="110.0" y="124" text-anchor="end">누구나</text>
  <line class="axis" x1="108" y1="148" x2="116" y2="142"/>
  <line class="axis" x1="108" y1="154" x2="116" y2="148"/>
  <text class="sm" x="110.0" y="100" text-anchor="end">아는 사람</text>
  <path class="step" d="M154.7,336 H336.7"/>
  <line class="unk" x1="336.7" y1="336" x2="336.7" y2="296"/>
  <path class="step" d="M336.7,296 H432.0 V256 H510.0 V216 H544.7 V176 H596.7"/>
  <line class="step" x1="596.7" y1="176" x2="596.7" y2="124" marker-end="url(#ah)"/>
  <circle class="pt" cx="154.7" cy="336" r="3.4"/>
  <text class="ev" x="150.7" y="324" text-anchor="start">1494 파치올리 「아마 불가능」</text>
  <text class="ev" x="330.7" y="288" text-anchor="end">1515 무렵 델 페로가 풀고 감추다</text>
  <text class="ev" x="426.0" y="248" text-anchor="end">1526 임종 무렵 피오르에게</text>
  <text class="ev" x="504.0" y="208" text-anchor="end">1535 타르탈리아가 스스로 이르다</text>
  <text class="ev" x="538.7" y="168" text-anchor="end">1539 시 스물다섯 줄 — 맹세</text>
  <text class="ev" x="590.7" y="118" text-anchor="end">1545 『아르스 마그나』 — 인쇄</text>
  <circle class="mk" cx="553.3" cy="176" r="3.2"/>
  <circle class="mk" cx="579.3" cy="176" r="3.2"/>
  <text class="tiny" x="551.3" y="193" text-anchor="start">①</text>
  <text class="tiny" x="579.3" y="168" text-anchor="middle">②</text>
  <text class="sm" x="640.0" y="314" text-anchor="end">① 1540 · 페라리가 사차를 풀다 — 낼 수 없음</text>
  <text class="sm" x="640.0" y="329" text-anchor="end">② 1543 · 볼로냐에서 델 페로 유고 확인</text>
  <line class="axis" x1="120" y1="356" x2="640" y2="356"/>
  <line class="axis" x1="120.0" y1="356" x2="120.0" y2="361"/>
  <text class="yr" x="120.0" y="374" text-anchor="middle">1490</text>
  <line class="axis" x1="206.7" y1="356" x2="206.7" y2="361"/>
  <text class="yr" x="206.7" y="374" text-anchor="middle">1500</text>
  <line class="axis" x1="293.3" y1="356" x2="293.3" y2="361"/>
  <text class="yr" x="293.3" y="374" text-anchor="middle">1510</text>
  <line class="axis" x1="380.0" y1="356" x2="380.0" y2="361"/>
  <text class="yr" x="380.0" y="374" text-anchor="middle">1520</text>
  <line class="axis" x1="466.7" y1="356" x2="466.7" y2="361"/>
  <text class="yr" x="466.7" y="374" text-anchor="middle">1530</text>
  <line class="axis" x1="553.3" y1="356" x2="553.3" y2="361"/>
  <text class="yr" x="553.3" y="374" text-anchor="middle">1540</text>
  <line class="axis" x1="640.0" y1="356" x2="640.0" y2="361"/>
  <text class="yr" x="640.0" y="374" text-anchor="middle">1550</text>
  <path class="brk" d="M336.7,383 V388 H596.7 V383"/>
  <text class="ev" x="466.7" y="403" text-anchor="middle">30년</text>
  <rect class="press" x="336.7" y="416" width="260.0" height="16" rx="2"/>
  <text class="sm" x="466.7" y="428" text-anchor="middle">그 30년 내내 인쇄기는 있었다</text>
<text class="warn" x="56" y="462">⚠ 세로축은 노트 §4 표의 사람 수다 — 해법을 알게 된 사람의 누계라서 1526년에 죽은 델 페로도 센다.</text>
<text class="warn" x="56" y="479">⚠ 계단은 표가 수를 적은 해에만 올렸다. 그사이 따로 알게 된 사람이 있었는지는 모른다.</text>
<text class="warn" x="56" y="496">⚠ 1515년 계단만 파선이다 — 출처가 「무렵」으로 적는다.</text>
<text class="warn" x="56" y="513">⚠ 페라리의 사차 풀이는 삼차 위에 섰으니 그도 알았다 — 표가 수를 적지 않아 올리지 않았을 뿐, 4는 적게 잡은 값이다.</text>
<text class="warn" x="56" y="530">⚠ 맨 위 「누구나」는 수가 아니다. 눈금 간격과 맞지 않는다.</text>
<text class="warn" x="56" y="547">⚠ 해는 노트의 출처 [11]~[14]·[21] MacTutor · Encyclopedia.com 을 따랐다.</text>
</svg>
